<svg id="visual" viewBox="0 0 900 600" width="900" height="600" xmlns="http://www.w3.org/2000/svg" version="1.1"><g transform="translate(450.96486883139346 335.0355923854228)"><path d="M247.3 -293.9C318.4 -288.9 372.2 -213.6 371.6 -138.9C370.9 -64.1 315.8 10.3 261.7 56.7C207.6 103.1 154.7 121.5 111.2 151.6C67.8 181.6 33.9 223.3 -0.6 224.1C-35.1 224.9 -70.1 184.9 -133.4 161.3C-196.6 137.6 -288.1 130.5 -335.5 85.2C-383 40 -386.4 -43.4 -343.5 -91.8C-300.5 -140.3 -211.1 -153.9 -146.1 -160.9C-81.1 -167.9 -40.6 -168.3 23.8 -201.1C88.2 -233.9 176.3 -299 247.3 -293.9" fill="#355070" fill-opacity="0.2" /></g></svg>