<svg id="visual" viewBox="0 0 900 600" width="900" height="600" xmlns="http://www.w3.org/2000/svg" version="1.1"><g transform="translate(438.1779319560327 334.1839153795115)"><path d="M212.4 -255.3C264.1 -209.7 287.2 -132.2 280.3 -65.1C273.5 2 236.8 58.8 194.4 93.6C152.1 128.4 104.1 141.2 54.1 167.6C4.2 193.9 -47.7 233.7 -98.6 232C-149.5 230.3 -199.5 187.2 -229.3 133.4C-259.2 79.6 -268.9 15.2 -242.4 -26.7C-215.9 -68.7 -153.2 -88.2 -106.7 -134.7C-60.3 -181.2 -30.1 -254.6 25.1 -284.5C80.3 -314.4 160.7 -300.8 212.4 -255.3" fill="#355070" fill-opacity="0.3" /></g></svg>