<?xml version="1.0"?>
<svg width="375" height="575.59415" xmlns="http://www.w3.org/2000/svg" xmlns:svg="http://www.w3.org/2000/svg">
 <g class="layer" display="inline">
  <title>Layer 1</title>
  <g id="svg_1">
   <rect fill="#2f2e41" height="90.68" id="svg_2" transform="translate(-12.96953 16.73948) rotate(-6.71736)" width="95.62" x="88.32" y="73.53"/>
   <circle cx="129.77" cy="73.53" fill="#ffb6b6" id="svg_3" r="46.62"/>
   <path d="m99.03,1.22l0,0c-29.05,8.07 -26.35,18.9 -35.15,25.72c-15.51,12.03 -18.68,41.84 -7.6,59.97c2.96,4.84 8.75,11.24 7.23,19.07c-1.17,6.01 -6.11,10.05 -7.03,10.79c-7.61,6.03 -2.96,-0.63 -6.17,4.04c-3.54,5.16 3.58,11.02 0.68,19.85c-2.57,7.82 -9.74,8.03 -10.11,12.81c-0.64,8.22 19.48,22.23 38.72,18.68c17.13,-3.17 28.24,-19.27 30.91,-33.53c1.79,-9.54 1.17,-25.53 -7.13,-32.36c-1.16,-0.95 -4.31,-3.24 -7.51,-7.41c-2.54,-3.31 -5.88,-7.66 -4.63,-11.08c1.34,-3.64 6.49,-2.41 9.25,-6.07c3.74,-4.95 -2.21,-11.88 -2.32,-19.65c-0.17,-13.15 16.41,-30.95 36.21,-30.82c22.48,0.15 33.44,23.27 34.59,25.81c2.38,5.25 2.97,10.53 4.14,21.09c1.68,15.16 2.74,24.66 -0.86,34.96c-5.18,14.82 -14.06,14.34 -15.31,25.05c-1.95,16.7 18.13,30.88 20.42,32.45c16.99,11.69 40.72,13.01 43.92,6.45c2.89,-5.91 -13.63,-12.62 -15.12,-29.76c-1.3,-14.85 10.14,-20.77 6.35,-30.63c-4.18,-10.85 -19.13,-6.5 -27.07,-18.39c-7.4,-11.1 2.91,-18.96 -1.74,-42.96c-0.98,-5.08 -4.32,-19.59 -15.51,-33.03c-4.93,-5.93 -9.94,-11.95 -18.3,-14.45c-9.36,-2.79 -35.49,-10.87 -50.86,-6.6l0,0z" fill="#2f2e41" id="svg_4"/>
   <path d="m84.21,44.47c2.39,10 18.2,13.17 24.85,13.67c2.81,0.21 12.32,0.93 21.09,-4.14c3.24,-1.88 4.33,-3.36 7.8,-4.24c4.71,-1.2 7.33,0.33 15.12,1.54c8.67,1.34 13.01,2.01 14.93,-0.1c3.15,-3.44 -0.71,-13.05 -5.59,-19.26c-9.01,-11.5 -23.29,-13.71 -29.95,-14.74c-7.61,-1.17 -23.06,-3.56 -35.83,5.88c-1.71,1.27 -14.86,11.23 -12.42,21.39l0,0z" fill="#2f2e41" id="svg_5"/>
  </g>
  <g id="svg_6" transform="translate(-375 271)">
   <path d="m717.9,224.13c0.22,-2.36 -5.31,-3.66 -5,-5.73c0.3,-2.06 5.89,-1.48 11.91,-5.06c1.09,-0.64 7.93,-4.71 7.35,-7.9c-1.08,-6.06 -27.85,-3.68 -30.22,-12.51c-0.52,-1.94 0.08,-4.62 -1.34,-10.71c-0.56,-2.42 -1.05,-3.69 -2.1,-4.11c-1.49,-0.6 -2.81,1.02 -6.57,3.36c-5.63,3.52 -6.62,2.35 -10.67,5.46c-3.01,2.32 -4.06,4.18 -5.33,3.77c-1.8,-0.59 -0.89,-4.69 -2.94,-5.75c-2.1,-1.08 -5.88,1.73 -8.21,4.2c-4.38,4.63 -4.95,9.37 -6.47,13.67c-1.66,4.68 -5.24,11.04 -13.87,17.45l-78.63,54.2c16.53,-10.83 62.75,-39.88 80.73,-50.09c5.19,-2.95 10.64,-5.81 16.46,-4.28c5.61,1.48 10.89,6.84 19.9,10.54c1.05,0.43 4,1.6 5.37,0.36c1.13,-1.02 0.16,-2.75 1.2,-3.72c1.4,-1.3 4.29,0.76 9.09,1.57c3.38,0.56 6,0.22 8.25,-0.08c0.67,-0.09 10.8,-1.49 11.09,-4.64l0,0l0,0z" fill="#f2f2f2" id="svg_7"/>
   <path d="m588.3,188.85c-1.09,-0.79 -3.32,1.55 -4.25,0.8c-0.92,-0.74 0.97,-3.32 0.95,-7.31c0,-0.72 -0.02,-5.25 -1.76,-5.89c-3.28,-1.21 -9.83,12.61 -14.85,11.23c-1.11,-0.3 -2.25,-1.37 -5.65,-2.44c-1.35,-0.42 -2.11,-0.54 -2.62,-0.15c-0.72,0.56 -0.31,1.68 -0.24,4.19c0.09,3.78 -0.76,3.93 -0.4,6.82c0.26,2.15 0.88,3.19 0.31,3.7c-0.81,0.72 -2.56,-0.92 -3.67,-0.22c-1.14,0.72 -0.85,3.39 -0.31,5.25c1.01,3.48 3.17,5.13 4.84,7.12c1.82,2.16 3.91,5.75 4.57,11.84l3.91,54.23c-0.55,-11.24 -1.47,-42.31 -1.29,-54.08c0.05,-3.4 0.22,-6.89 2.65,-9.31c2.34,-2.33 6.5,-3.37 10.91,-6.73c0.52,-0.39 1.94,-1.5 1.73,-2.52c-0.18,-0.86 -1.31,-0.88 -1.48,-1.67c-0.24,-1.06 1.61,-1.88 3.39,-4.01c1.25,-1.5 1.84,-2.88 2.34,-4.07c0.15,-0.36 2.39,-5.73 0.92,-6.78l0,0l0,0z" fill="#f2f2f2" id="svg_8"/>
   <path d="m606.6,209.55l3.6,-6.36l0.62,-0.23c2.89,-1.06 5.06,-2.56 6.45,-4.47c0.22,-0.3 0.43,-0.61 0.64,-0.93c0.83,-1.27 1.87,-2.85 3.95,-4.05c1.16,-0.67 4.08,-2.06 5.76,-0.42c0.45,0.44 0.67,0.95 0.76,1.44c0.1,-0.04 0.19,-0.08 0.29,-0.12c1.23,-0.47 1.98,-0.52 2.69,-0.56c0.55,-0.04 1.12,-0.07 2.18,-0.36c0.46,-0.13 0.85,-0.26 1.17,-0.37c0.98,-0.32 2.2,-0.67 3.31,0.15c1.16,0.93 1.07,2.37 1.02,3.33c-0.11,1.71 -0.38,2.8 -0.56,3.52c-0.07,0.26 -0.15,0.56 -0.15,0.67c-0.03,0.85 3.5,2.59 4.83,3.25c2.98,1.48 5.56,2.76 5.29,5.13c-0.19,1.69 -1.84,2.91 -5.05,3.72c-1,0.25 -1.92,0.33 -2.7,0.34c0.24,0.55 0.34,1.21 0.05,1.92l0,0c-0.67,1.69 -2.93,2.23 -6.72,1.62c-0.94,-0.15 -2.21,-0.35 -3.67,-1.07c-0.69,-0.34 -1.26,-0.71 -1.74,-1.04c-0.21,0.27 -0.49,0.52 -0.88,0.7c-1.13,0.54 -2.46,0.24 -3.91,-0.97c-1.62,-1.31 -2.77,-2.63 -3.79,-3.8c-0.89,-1.02 -1.66,-1.89 -2.42,-2.36c-1.42,-0.86 -3.22,-0.54 -5.44,-0.02l-5.58,1.34l0,0l0,0z" fill="#f2f2f2" id="svg_9"/>
   <path d="m635.02,176.71l-7.07,-1.87l-0.38,-0.55c-1.75,-2.52 -3.75,-4.24 -5.95,-5.1c-0.35,-0.14 -0.71,-0.26 -1.07,-0.38c-1.44,-0.48 -3.23,-1.08 -4.92,-2.79c-0.94,-0.96 -3.03,-3.43 -1.86,-5.47c0.31,-0.55 0.75,-0.89 1.19,-1.1c-0.06,-0.08 -0.12,-0.16 -0.18,-0.25c-0.77,-1.08 -1,-1.78 -1.23,-2.46c-0.17,-0.53 -0.35,-1.07 -0.9,-2.02c-0.24,-0.41 -0.46,-0.75 -0.65,-1.04c-0.56,-0.86 -1.21,-1.96 -0.7,-3.24c0.61,-1.36 2.03,-1.64 2.97,-1.82c1.68,-0.34 2.8,-0.35 3.54,-0.35c0.28,-0.01 0.58,-0.01 0.69,-0.03c0.82,-0.19 1.61,-4.05 1.92,-5.5c0.68,-3.26 1.26,-6.08 3.61,-6.42c1.69,-0.24 3.29,1.04 4.89,3.94c0.49,0.9 0.8,1.78 1.01,2.53c0.48,-0.37 1.09,-0.63 1.85,-0.54l0,0c1.8,0.23 2.9,2.28 3.27,6.09c0.09,0.95 0.22,2.23 -0.11,3.83c-0.15,0.75 -0.37,1.4 -0.56,1.94c0.31,0.14 0.62,0.34 0.9,0.67c0.81,0.96 0.85,2.32 0.05,4.03c-0.85,1.9 -1.84,3.35 -2.71,4.63c-0.76,1.12 -1.41,2.09 -1.67,2.94c-0.48,1.59 0.3,3.26 1.35,5.27l2.72,5.06l0,0l0,0z" fill="#f2f2f2" id="svg_10"/>
   <path d="m644.51,157.15l3.6,-6.37l0.63,-0.23c2.89,-1.05 5.05,-2.55 6.45,-4.46c0.22,-0.3 0.42,-0.62 0.63,-0.94c0.84,-1.27 1.87,-2.84 3.95,-4.05c1.17,-0.67 4.08,-2.06 5.76,-0.41c0.46,0.44 0.67,0.95 0.77,1.43c0.09,-0.03 0.18,-0.07 0.28,-0.11c1.24,-0.47 1.98,-0.52 2.7,-0.56c0.55,-0.04 1.11,-0.07 2.17,-0.37c0.47,-0.12 0.85,-0.25 1.17,-0.36c0.98,-0.33 2.21,-0.68 3.32,0.15c1.16,0.92 1.07,2.37 1.01,3.33c-0.1,1.71 -0.38,2.8 -0.56,3.52c-0.07,0.26 -0.14,0.56 -0.15,0.66c-0.02,0.85 3.51,2.59 4.83,3.26c2.98,1.48 5.56,2.76 5.3,5.12c-0.19,1.7 -1.85,2.92 -5.05,3.73c-1,0.25 -1.92,0.32 -2.71,0.34c0.24,0.55 0.34,1.21 0.06,1.92l0,0c-0.68,1.69 -2.94,2.23 -6.73,1.62c-0.94,-0.15 -2.21,-0.36 -3.67,-1.07c-0.69,-0.34 -1.26,-0.71 -1.74,-1.04c-0.21,0.26 -0.49,0.51 -0.87,0.7c-1.14,0.54 -2.46,0.23 -3.92,-0.98c-1.62,-1.3 -2.77,-2.63 -3.79,-3.79c-0.89,-1.02 -1.66,-1.89 -2.42,-2.37c-1.41,-0.86 -3.22,-0.53 -5.44,-0.02l-5.58,1.35l0,0l0,0z" fill="#f2f2f2" id="svg_11"/>
   <path d="m567.85,275.8l-0.68,-1.67l0.73,-1.64l-0.73,1.64l-1.56,-0.87c0.08,-0.15 0.22,-0.52 0.45,-1.08c1.26,-3.1 5.1,-12.53 12.59,-26.34c5.23,-9.63 11.13,-19.15 17.55,-28.31c6.43,-9.16 11.82,-15.72 16.16,-20.99c3.27,-3.97 6.46,-7.71 9.56,-11.34c8.29,-9.72 16.11,-18.9 23.34,-30.11c1.61,-2.5 4.97,-7.7 5.9,-15.16c0.54,-4.32 0.19,-8.76 -1.05,-13.19l3.46,-0.97c1.37,4.9 1.75,9.81 1.16,14.61c-1.04,8.27 -4.69,13.94 -6.45,16.66c-7.36,11.41 -15.26,20.68 -23.63,30.49c-3.09,3.62 -6.26,7.34 -9.52,11.3c-4.29,5.22 -9.64,11.72 -15.99,20.76c-6.34,9.05 -12.17,18.45 -17.34,27.97c-7.39,13.62 -11.17,22.92 -12.41,25.97c-0.66,1.63 -0.8,1.97 -1.54,2.27l0,0z" fill="#f2f2f2" id="svg_12"/>
   <path d="m641.42,127.5c-0.12,-0.08 -0.23,-0.17 -0.35,-0.27c-2.38,-1.93 -3.61,-5.07 -3.64,-9.35c-0.01,-2 0.59,-3.86 1.77,-7.56c0.18,-0.57 1.13,-3.44 3.01,-6.98c1.22,-2.31 1.9,-3.17 2.87,-3.64c1.09,-0.53 2.28,-0.59 3.41,-0.39c0.17,-0.31 0.4,-0.57 0.74,-0.78c1.37,-0.85 2.57,0.26 3.23,0.86c0.33,0.3 0.74,0.69 1.24,1.01c0.79,0.52 1.37,0.59 2.24,0.7c0.83,0.1 1.87,0.23 3.13,0.8c2.49,1.12 3.86,3.05 4.31,3.68c2.39,3.33 2.18,6.9 1.92,11.03c-0.05,0.83 -0.32,3.79 -1.56,7.22c-0.9,2.47 -1.64,3.32 -2.3,3.87c-1.37,1.13 -2.79,1.31 -6.21,1.51c-3.57,0.22 -5.36,0.33 -6.74,0.19c-3.19,-0.33 -5.19,-0.54 -7.07,-1.9l0,0l0,0z" fill="#f2f2f2" id="svg_13"/>
  </g>
  <path d="m184.35,567.02c-23.12,5.61 -47.27,8.57 -72.12,8.57c-26.9,0 -53.01,-3.47 -77.86,-10.02c-2.71,-10.03 -5.79,-21.14 -9.28,-33.42c-31.28,-110.28 32.1,-188.47 32.1,-188.47l15.63,-12.34l140.74,18.93c16.38,79.85 5.72,139.11 -29.21,216.75l0,0z" fill="#2f2e41" id="svg_14"/>
  <polygon fill="#eb7847" id="svg_15" points="161.42223 132.99535 95.58132 126.41126 47.84666 167.56182 62.66086 315.70386 56.07677 343.68625 212.44892 350.27033 204.2188 310.76578 215.74097 165.91581 161.42223 132.99535"/>
  <rect fill="#fff" height="164.6" id="svg_16" width="105.35" x="77.48" y="210.36"/>
  <path d="m167.79,232.01l-29.44,0c-0.79,0 -1.44,-0.64 -1.44,-1.44s0.65,-1.44 1.44,-1.44l29.44,0c0.79,0 1.44,0.64 1.44,1.44s-0.65,1.44 -1.44,1.44z" fill="#eb7847" id="svg_17"/>
  <path d="m167.79,243.12l-29.44,0c-0.79,0 -1.44,-0.65 -1.44,-1.45s0.65,-1.44 1.44,-1.44l29.44,0c0.79,0 1.44,0.65 1.44,1.44s-0.65,1.45 -1.44,1.45z" fill="#eb7847" id="svg_18"/>
  <path d="m167.79,254.22l-29.44,0c-0.79,0 -1.44,-0.64 -1.44,-1.44s0.65,-1.44 1.44,-1.44l29.44,0c0.79,0 1.44,0.64 1.44,1.44s-0.65,1.44 -1.44,1.44z" fill="#eb7847" id="svg_19"/>
  <path d="m166.47,293.09l-71.58,0c-1.93,0 -3.51,-1.58 -3.51,-3.51s1.58,-3.51 3.51,-3.51l71.58,0c1.93,0 3.51,1.57 3.51,3.51s-1.58,3.51 -3.51,3.51z" fill="#e6e6e6" id="svg_20"/>
  <path d="m126.2,357.02c14.24,4.46 28.09,0.73 30.93,-8.33s-6.41,-20.03 -20.65,-24.49c-5.67,-1.86 -11.7,-2.34 -17.59,-1.39l-60.58,-18.15l-38.45,27.5l91.1,15.96c4.3,4.14 9.52,7.19 15.24,8.9z" fill="#ffb6b6" id="b-4212"/>
  <path d="m54.05,164.27s-22.07,12.61 -28.38,39.41l-25.22,107.21s-4.73,15.77 16.55,23.65c21.29,7.88 47.3,-26.01 47.3,-26.01l-11.88,-11.88l22.91,-100.06l-21.28,-32.32l0,0z" fill="#eb7847" id="svg_21"/>
  <path d="m109.78,341.17c-14.8,1.89 -27.78,-4.23 -28.97,-13.65c-1.2,-9.42 9.83,-18.58 24.64,-20.46c5.91,-0.84 11.93,-0.24 17.56,1.73l62.83,-7.19l32.99,33.86l-92.48,-0.35c-4.96,3.31 -10.64,5.39 -16.57,6.06z" fill="#ffb6b6" id="c-4213"/>
  <path d="m214.78,164.16s19.51,16.31 20.99,43.8l5.93,109.98s1.87,16.35 -20.47,20.36s-41.97,-33.95 -41.97,-33.95l13.79,-9.6l-4.91,-102.52l26.64,-28.07l0,0z" fill="#eb7847" id="svg_22"/>
  <rect fill="#eb7847" height="46.09" id="svg_23" width="37.86" x="89" y="221.88"/>
  <path d="m99.1,256.28l-2.6,11.39l-0.06,0.3l-7.41,0c0.89,-3.75 1.99,-8.4 2.5,-10.62c0.64,-2.7 2.32,-4.44 3.39,-5.31c0.55,-0.48 0.94,-0.7 0.94,-0.7l3.24,4.94l0,0z" fill="#e6e6e6" id="svg_24"/>
  <path d="m124.11,267.97l-7.21,0l-0.6,-12.36l3.96,-4.17l0.11,-0.11s2.98,2.48 3.19,6.68c0.12,2.09 0.35,6.29 0.55,9.96z" fill="#e6e6e6" id="svg_25"/>
  <g id="svg_29">
   <rect fill="#2f2e41" height="12.3" id="svg_30" transform="translate(-27.74113 14.42648) rotate(-6.71736)" width="12.97" x="102.56" y="237.41"/>
   <circle cx="108.18" cy="237.41" fill="#ffb6b6" id="svg_31" r="6.32"/>
   <path d="m104.01,227.61l0,0c-3.94,1.09 -3.57,2.56 -4.77,3.49c-2.1,1.63 -2.53,5.67 -1.03,8.13c0.4,0.65 1.19,1.52 0.98,2.58c-0.16,0.82 -0.83,1.37 -0.95,1.47c-1.03,0.81 -0.4,-0.09 -0.84,0.54c-0.48,0.7 0.49,1.5 0.09,2.69c-0.34,1.07 -1.32,1.09 -1.37,1.74c-0.08,1.12 2.64,3.02 5.25,2.54c2.33,-0.43 3.83,-2.62 4.2,-4.55c0.24,-1.29 0.15,-3.46 -0.97,-4.39c-0.16,-0.13 -0.59,-0.44 -1.02,-1c-0.34,-0.45 -0.8,-1.04 -0.63,-1.51c0.18,-0.49 0.88,-0.32 1.26,-0.82c0.5,-0.67 -0.3,-1.61 -0.32,-2.66c-0.02,-1.79 2.23,-4.2 4.91,-4.18c3.05,0.02 4.54,3.15 4.69,3.5c0.32,0.71 0.4,1.42 0.56,2.86c0.23,2.05 0.37,3.34 -0.11,4.74c-0.71,2.01 -1.91,1.94 -2.08,3.39c-0.26,2.27 2.46,4.19 2.77,4.4c2.3,1.59 5.52,1.77 5.96,0.88c0.39,-0.8 -1.85,-1.71 -2.06,-4.04c-0.17,-2.01 1.38,-2.81 0.87,-4.15c-0.57,-1.47 -2.6,-0.88 -3.67,-2.49c-1.01,-1.51 0.39,-2.57 -0.24,-5.83c-0.13,-0.69 -0.59,-2.65 -2.1,-4.48c-0.67,-0.8 -1.35,-1.62 -2.49,-1.96c-1.26,-0.38 -4.81,-1.47 -6.89,-0.89l0,0z" fill="#2f2e41" id="svg_32"/>
   <path d="m102,233.47c0.32,1.36 2.47,1.79 3.37,1.86c0.38,0.03 1.67,0.12 2.86,-0.57c0.44,-0.25 0.59,-0.45 1.06,-0.57c0.63,-0.16 0.99,0.05 2.05,0.21c1.17,0.18 1.76,0.27 2.02,-0.01c0.43,-0.47 -0.1,-1.77 -0.76,-2.62c-1.22,-1.56 -3.16,-1.85 -4.06,-1.99c-1.03,-0.16 -3.12,-0.49 -4.86,0.79c-0.23,0.17 -2.01,1.53 -1.68,2.9l0,0z" fill="#2f2e41" id="svg_33"/>
  </g>
  <polygon fill="#e6e6e6" id="svg_34" points="120.5186 251.60773 119.21818 267.96921 96.51956 267.96921 96.50309 267.67292 94.92287 252.03571 94.90649 251.85456 99.71286 247.72313 101.19421 246.4392 102.19836 245.58323 104.78263 245.84665 112.22258 246.58738 112.23906 246.58738 114.74105 248.1017 118.47745 250.3732 120.25518 251.44306 120.5186 251.60773"/>
 </g>
</svg>