<?xml version="1.0" standalone="no"?><svg xmlns="http://www.w3.org/2000/svg" viewBox="0 0 1440 320"><path fill="#355070" fill-opacity="1" d="M0,0L21.8,5.3C43.6,11,87,21,131,64C174.5,107,218,181,262,181.3C305.5,181,349,107,393,112C436.4,117,480,203,524,202.7C567.3,203,611,117,655,69.3C698.2,21,742,11,785,32C829.1,53,873,107,916,160C960,213,1004,267,1047,256C1090.9,245,1135,171,1178,160C1221.8,149,1265,203,1309,202.7C1352.7,203,1396,149,1418,122.7L1440,96L1440,0L1418.2,0C1396.4,0,1353,0,1309,0C1265.5,0,1222,0,1178,0C1134.5,0,1091,0,1047,0C1003.6,0,960,0,916,0C872.7,0,829,0,785,0C741.8,0,698,0,655,0C610.9,0,567,0,524,0C480,0,436,0,393,0C349.1,0,305,0,262,0C218.2,0,175,0,131,0C87.3,0,44,0,22,0L0,0Z" /></svg>